<?xml version="1.0" encoding="iso-8859-1"?>
<!-- Generator: Adobe Illustrator 19.0.0, SVG Export Plug-In . SVG Version: 6.00 Build 0)  -->
<svg version="1.1" id="Layer_1" xmlns="http://www.w3.org/2000/svg" xmlns:xlink="http://www.w3.org/1999/xlink" x="0px" y="0px"
	 viewBox="0 0 512 512" style="enable-background:new 0 0 512 512;" xml:space="preserve">
<path style="fill:#B9B9B9;" d="M256,8.17l43.574,94.23L256,182.468c-40.611,0-73.532,32.921-73.532,73.532
	c0,13.388,3.584,25.949,9.848,36.766l-53.982,87.321l-96.96-0.172C20.24,343.476,8.17,301.154,8.17,256
	C8.17,119.133,119.133,8.17,256,8.17z"/>
<path style="fill:#969696;" d="M470.659,132.063c-0.033,0.022-44.054-8.922-44.054-8.922L258.778,503.808
	C394.371,502.326,503.83,391.941,503.83,256C503.83,210.846,491.76,168.524,470.659,132.063z"/>
<path style="fill:#D5F6F5;" d="M470.659,132.063c-0.033,0.022-22.267,12.865-22.267,12.865L364.01,93.522l67.224-12.756
	C446.497,96.016,459.776,113.261,470.659,132.063z"/>
<path style="fill:#B9B9B9;" d="M448.392,144.929c14.554,33.411,22.757,71.135,22.757,111.071
	c0,135.8-94.818,246.098-212.371,247.808c-0.926,0.011-1.852,0.022-2.778,0.022l-43.574-98.043L256,329.532
	c40.611,0,73.532-32.921,73.532-73.532c0-13.388-3.584-25.949-9.848-36.766l51.216-57.645L448.392,144.929z"/>
<path style="fill:#FFFFFF;" d="M448.392,144.929l-128.708,74.305c-3.224-5.588-7.157-10.698-11.689-15.229l18.813-73.281
	l91.67-37.202C430.2,109.078,440.276,126.333,448.392,144.929z"/>
<path style="fill:#81E3E2;" d="M258.778,8.192l159.7,85.33l12.756-12.756C387.007,36.515,326.111,8.922,258.778,8.192z"/>
<g>
	<path style="fill:#ABECEC;" d="M258.778,8.192c63.749,0.926,120.799,33.792,159.7,85.33L307.995,204.005
		c-13.301-13.301-31.69-21.537-51.995-21.537V8.17C256.926,8.17,257.852,8.181,258.778,8.192z"/>
	<path style="fill:#ABECEC;" d="M192.316,292.766c12.702,21.983,36.461,36.766,63.684,36.766V503.83
		c-91.713,0-171.803-49.827-214.659-123.893C41.374,379.915,192.316,292.766,192.316,292.766z"/>
</g>
<path style="fill:#EEEEEE;" d="M256,157.957c-54.061,0-98.043,43.982-98.043,98.043s43.982,98.043,98.043,98.043
	s98.043-43.982,98.043-98.043S310.061,157.957,256,157.957z M256,296.851c-22.562,0-40.851-18.289-40.851-40.851
	s18.289-40.851,40.851-40.851s40.851,18.289,40.851,40.851S278.562,296.851,256,296.851z"/>
<path d="M437.637,75.614c-0.183-0.228-0.378-0.449-0.589-0.659c-0.211-0.21-0.432-0.406-0.659-0.589C388.107,26.407,324.085,0,256,0
	C187.62,0,123.332,26.628,74.981,74.981C26.628,123.332,0,187.62,0,256s26.628,132.668,74.981,181.019
	C123.332,485.372,187.62,512,256,512s132.667-26.628,181.019-74.981C485.372,388.668,512,324.38,512,256
	C512,187.915,485.593,123.893,437.637,75.614z M336.623,186.933l35.892-35.892c3.191-3.191,3.191-8.364,0-11.554
	c-3.192-3.191-8.364-3.191-11.555,0l-35.891,35.891c-16.645-14.28-37.743-23.511-60.898-25.28V16.495
	c59.924,2.019,114.333,26.137,155.329,64.451l-35.433,35.433c-3.191,3.191-3.191,8.364,0,11.554
	c1.596,1.596,3.686,2.393,5.778,2.393c2.091,0,4.182-0.797,5.778-2.393l35.433-35.431c10.536,11.274,19.999,23.562,28.224,36.702
	l-115.688,66.792C341.428,192.849,339.102,189.823,336.623,186.933z M247.83,16.495v133.604
	c-54.763,4.185-98.043,50.084-98.043,105.901c0,16.418,3.745,31.977,10.425,45.869L44.525,368.661
	C26.551,335.056,16.34,296.701,16.34,256C16.34,126.587,119.451,20.819,247.83,16.495z M52.722,382.796l115.688-66.792
	c17.712,25.773,46.486,43.381,79.42,45.897v133.604C165.608,492.736,93.762,448.355,52.722,382.796z M264.17,495.505V361.901
	c19.223-1.462,37.522-8.08,53.35-19.361c3.674-2.619,4.53-7.72,1.911-11.395c-2.619-3.673-7.718-4.532-11.396-1.911
	c-15.272,10.884-33.266,16.638-52.036,16.638c-49.556,0-89.872-40.316-89.872-89.872s40.316-89.872,89.872-89.872
	c49.555,0,89.872,40.316,89.872,89.872c0,18.771-5.754,36.765-16.639,52.036c-2.619,3.674-1.764,8.777,1.911,11.396
	c3.676,2.619,8.777,1.763,11.396-1.911c12.87-18.057,19.673-39.33,19.673-61.521c0-16.418-3.745-31.977-10.425-45.869
	l115.687-66.792c17.974,33.605,28.185,71.96,28.185,112.661C495.66,385.413,392.549,491.181,264.17,495.505z"/>
<path d="M256,206.979c-27.03,0-49.021,21.991-49.021,49.021S228.97,305.021,256,305.021S305.021,283.03,305.021,256
	S283.03,206.979,256,206.979z M256,288.681c-18.02,0-32.681-14.661-32.681-32.681S237.98,223.319,256,223.319
	S288.681,237.98,288.681,256S274.02,288.681,256,288.681z"/>
<g>
</g>
<g>
</g>
<g>
</g>
<g>
</g>
<g>
</g>
<g>
</g>
<g>
</g>
<g>
</g>
<g>
</g>
<g>
</g>
<g>
</g>
<g>
</g>
<g>
</g>
<g>
</g>
<g>
</g>
</svg>
